<svg xmlns="http://www.w3.org/2000/svg" viewBox="0 0 1000 700" width="1000" height="700">
  <!-- Background -->
  <rect width="1000" height="700" fill="#f5f5f5"/>
  
  <!-- Title -->
  <text x="500" y="40" font-family="Arial" font-size="24" font-weight="bold" text-anchor="middle">OmniHuman with Seaweed-Wan Architecture</text>
  
  <!-- Input Conditions -->
  <g>
    <rect x="50" y="80" width="160" height="80" rx="10" fill="#e3f2fd" stroke="#2196f3" stroke-width="2"/>
    <text x="130" y="125" font-family="Arial" font-size="16" font-weight="bold" text-anchor="middle">Text Prompt</text>
    
    <rect x="240" y="80" width="160" height="80" rx="10" fill="#e3f2fd" stroke="#2196f3" stroke-width="2"/>
    <text x="320" y="125" font-family="Arial" font-size="16" font-weight="bold" text-anchor="middle">Reference Image</text>
    
    <rect x="430" y="80" width="160" height="80" rx="10" fill="#e3f2fd" stroke="#2196f3" stroke-width="2"/>
    <text x="510" y="125" font-family="Arial" font-size="16" font-weight="bold" text-anchor="middle">Audio Signal</text>
    
    <rect x="620" y="80" width="160" height="80" rx="10" fill="#e3f2fd" stroke="#2196f3" stroke-width="2"/>
    <text x="700" y="125" font-family="Arial" font-size="16" font-weight="bold" text-anchor="middle">Pose Heatmaps</text>
    
    <rect x="810" y="80" width="140" height="80" rx="10" fill="#e3f2fd" stroke="#2196f3" stroke-width="2"/>
    <text x="880" y="125" font-family="Arial" font-size="16" font-weight="bold" text-anchor="middle">Latent Noise</text>
  </g>
  
  <!-- Condition Processing -->
  <g>
    <rect x="100" y="200" width="800" height="100" rx="10" fill="#e8f5e9" stroke="#4caf50" stroke-width="2"/>
    <text x="500" y="235" font-family="Arial" font-size="20" font-weight="bold" text-anchor="middle">Omni-Conditions Module</text>
    <text x="500" y="265" font-family="Arial" font-size="14" text-anchor="middle">Processes and combines multiple modality conditions</text>
    
    <!-- Input arrows -->
    <line x1="130" y1="160" x2="130" y2="200" stroke="#2196f3" stroke-width="2" stroke-dasharray="5,5"/>
    <line x1="320" y1="160" x2="320" y2="200" stroke="#2196f3" stroke-width="2" stroke-dasharray="5,5"/>
    <line x1="510" y1="160" x2="510" y2="200" stroke="#2196f3" stroke-width="2" stroke-dasharray="5,5"/>
    <line x1="700" y1="160" x2="700" y2="200" stroke="#2196f3" stroke-width="2" stroke-dasharray="5,5"/>
  </g>
  
  <!-- T5 Text Encoder -->
  <g>
    <rect x="100" y="340" width="240" height="80" rx="10" fill="#fff3e0" stroke="#ff9800" stroke-width="2"/>
    <text x="220" y="375" font-family="Arial" font-size="16" font-weight="bold" text-anchor="middle">T5 Text Encoder</text>
    <text x="220" y="395" font-family="Arial" font-size="12" text-anchor="middle">(from Wan Architecture)</text>
    
    <!-- Input arrow -->
    <line x1="220" y1="300" x2="220" y2="340" stroke="#4caf50" stroke-width="2"/>
  </g>
  
  <!-- Seaweed-Wan One-Step Generator -->
  <g>
    <rect x="380" y="340" width="240" height="80" rx="10" fill="#fce4ec" stroke="#e91e63" stroke-width="2"/>
    <text x="500" y="375" font-family="Arial" font-size="16" font-weight="bold" text-anchor="middle">Seaweed-Wan</text>
    <text x="500" y="395" font-family="Arial" font-size="12" text-anchor="middle">One-Step Generator</text>
    
    <!-- Input arrows -->
    <line x1="500" y1="300" x2="500" y2="340" stroke="#4caf50" stroke-width="2"/>
    <line x1="340" y1="380" x2="380" y2="380" stroke="#ff9800" stroke-width="2"/>
    <line x1="880" y1="160" x2="880" y2="380" stroke="#2196f3" stroke-width="2" stroke-dasharray="5,5"/>
    <line x1="880" y1="380" x2="620" y2="380" stroke="#2196f3" stroke-width="2" stroke-dasharray="5,5"/>
  </g>
  
  <!-- VAE for Decoding -->
  <g>
    <rect x="660" y="340" width="240" height="80" rx="10" fill="#e1f5fe" stroke="#03a9f4" stroke-width="2"/>
    <text x="780" y="375" font-family="Arial" font-size="16" font-weight="bold" text-anchor="middle">Wan VAE</text>
    <text x="780" y="395" font-family="Arial" font-size="12" text-anchor="middle">3D Latent Decoder</text>
    
    <!-- Input arrow -->
    <line x1="780" y1="300" x2="780" y2="340" stroke="#4caf50" stroke-width="2"/>
    <line x1="620" y1="380" x2="660" y2="380" stroke="#e91e63" stroke-width="2"/>
  </g>
  
  <!-- Output Video -->
  <g>
    <rect x="380" y="460" width="240" height="80" rx="10" fill="#f3e5f5" stroke="#9c27b0" stroke-width="2"/>
    <text x="500" y="505" font-family="Arial" font-size="16" font-weight="bold" text-anchor="middle">Generated Video</text>
    
    <!-- Input arrow -->
    <line x1="780" y1="420" x2="780" y2="500" stroke="#03a9f4" stroke-width="2"/>
    <line x1="780" y1="500" x2="620" y2="500" stroke="#03a9f4" stroke-width="2"/>
  </g>
  
  <!-- CFG Block -->
  <g>
    <rect x="100" y="460" width="240" height="80" rx="10" fill="#ede7f6" stroke="#673ab7" stroke-width="2"/>
    <text x="220" y="490" font-family="Arial" font-size="16" font-weight="bold" text-anchor="middle">Classifier-Free Guidance</text>
    <text x="220" y="510" font-family="Arial" font-size="12" text-anchor="middle">(For Text and Audio Conditions)</text>
    
    <!-- Connection arrows -->
    <line x1="220" y1="420" x2="220" y2="460" stroke="#ff9800" stroke-width="2"/>
    <line x1="220" y1="500" x2="380" y2="500" stroke="#673ab7" stroke-width="2"/>
  </g>
  
  <!-- Key Components Labels -->
  <g>
    <rect x="50" y="580" width="900" height="80" rx="10" fill="white" stroke="#333" stroke-width="1"/>
    
    <!-- Seaweed-Wan Components -->
    <rect x="70" y="595" width="20" height="20" fill="#fce4ec" stroke="#e91e63" stroke-width="1"/>
    <text x="100" y="610" font-family="Arial" font-size="14" text-anchor="start">Seaweed-Wan Components (One-step generation)</text>
    
    <!-- Wan Base Architecture -->
    <rect x="320" y="595" width="20" height="20" fill="#fff3e0" stroke="#ff9800" stroke-width="1"/>
    <text x="350" y="610" font-family="Arial" font-size="14" text-anchor="start">Wan Base Architecture (T5, VAE)</text>
    
    <!-- OmniHuman Components -->
    <rect x="570" y="595" width="20" height="20" fill="#e8f5e9" stroke="#4caf50" stroke-width="1"/>
    <text x="600" y="610" font-family="Arial" font-size="14" text-anchor="start">OmniHuman Components (Multi-modal conditioning)</text>
    
    <!-- Input/Output -->
    <rect x="70" y="625" width="20" height="20" fill="#e3f2fd" stroke="#2196f3" stroke-width="1"/>
    <text x="100" y="640" font-family="Arial" font-size="14" text-anchor="start">Input Conditions</text>
    
    <rect x="320" y="625" width="20" height="20" fill="#f3e5f5" stroke="#9c27b0" stroke-width="1"/>
    <text x="350" y="640" font-family="Arial" font-size="14" text-anchor="start">Output Video</text>
    
    <rect x="570" y="625" width="20" height="20" fill="#ede7f6" stroke="#673ab7" stroke-width="1"/>
    <text x="600" y="640" font-family="Arial" font-size="14" text-anchor="start">Enhancement Features (CFG)</text>
  </g>
</svg>